<?xml version="1.0" encoding="UTF-8" standalone="no"?><svg xmlns="http://www.w3.org/2000/svg" xmlns:xlink="http://www.w3.org/1999/xlink" contentScriptType="application/ecmascript" contentStyleType="text/css" height="566px" preserveAspectRatio="none" style="width:767px;height:566px;" version="1.1" viewBox="0 0 767 566" width="767px" zoomAndPan="magnify"><defs><filter height="300%" id="fi1btb6xky9jw" width="300%" x="-1" y="-1"><feGaussianBlur result="blurOut" stdDeviation="2.0"/><feColorMatrix in="blurOut" result="blurOut2" type="matrix" values="0 0 0 0 0 0 0 0 0 0 0 0 0 0 0 0 0 0 .4 0"/><feOffset dx="4.0" dy="4.0" in="blurOut2" result="blurOut3"/><feBlend in="SourceGraphic" in2="blurOut3" mode="normal"/></filter></defs><g><!--MD5=[d841c4c2f84d4e18d352f800547f43fc]
cluster platform--><polygon fill="#FFFFFF" filter="url(#fi1btb6xky9jw)" points="145,431,209,431,216,454.6094,750,454.6094,750,559,145,559,145,431" style="stroke:#000000;stroke-width:1.5;"/><line style="stroke:#000000;stroke-width:1.5;" x1="145" x2="216" y1="454.6094" y2="454.6094"/><text fill="#000000" font-family="sans-serif" font-size="14" font-weight="bold" lengthAdjust="spacingAndGlyphs" textLength="58" x="149" y="447.5332">platform</text><!--MD5=[336f72aa230bcf97bf803b8ae8a7471f]
cluster edk2--><polygon fill="#FFFFFF" filter="url(#fi1btb6xky9jw)" points="16,6,56,6,63,29.6094,483,29.6094,483,407,16,407,16,6" style="stroke:#000000;stroke-width:1.5;"/><line style="stroke:#000000;stroke-width:1.5;" x1="16" x2="63" y1="29.6094" y2="29.6094"/><text fill="#000000" font-family="sans-serif" font-size="14" font-weight="bold" lengthAdjust="spacingAndGlyphs" textLength="34" x="20" y="22.5332">edk2</text><!--MD5=[859ab30549852151da41ea1c49d0d2f6]
class RpmcLib--><rect codeLine="3" fill="#FEFECE" filter="url(#fi1btb6xky9jw)" height="75.6719" id="RpmcLib" style="stroke:#A80036;stroke-width:1.5;" width="228" x="506" y="467"/><ellipse cx="590.75" cy="483" fill="#ADD1B2" rx="11" ry="11" style="stroke:#A80036;stroke-width:1.0;"/><path d="M593.5156,478.875 Q593.6719,478.6563 593.8594,478.5469 Q594.0469,478.4375 594.2656,478.4375 Q594.6406,478.4375 594.875,478.7031 Q595.1094,478.9531 595.1094,479.5625 L595.1094,481.0156 Q595.1094,481.625 594.875,481.8906 Q594.6406,482.1563 594.2656,482.1563 Q593.9219,482.1563 593.7188,481.9531 Q593.5156,481.7656 593.4063,481.25 Q593.3594,480.8906 593.1719,480.7031 Q592.8438,480.3281 592.2344,480.1094 Q591.625,479.8906 591,479.8906 Q590.2344,479.8906 589.5938,480.2188 Q588.9688,480.5469 588.4688,481.2969 Q587.9844,482.0469 587.9844,483.0781 L587.9844,484.1719 Q587.9844,485.4063 588.875,486.2344 Q589.7656,487.0469 591.3594,487.0469 Q592.2969,487.0469 592.9531,486.7969 Q593.3438,486.6406 593.7656,486.2031 Q594.0313,485.9375 594.1719,485.8594 Q594.3281,485.7813 594.5313,485.7813 Q594.8594,485.7813 595.1094,486.0469 Q595.375,486.2969 595.375,486.6406 Q595.375,486.9844 595.0313,487.3906 Q594.5313,487.9688 593.7344,488.2969 Q592.6563,488.75 591.3594,488.75 Q589.8438,488.75 588.6406,488.125 Q587.6563,487.625 586.9688,486.5625 Q586.2813,485.4844 586.2813,484.2031 L586.2813,483.0469 Q586.2813,481.7188 586.8906,480.5781 Q587.5156,479.4219 588.6094,478.8125 Q589.7031,478.1875 590.9375,478.1875 Q591.6719,478.1875 592.3125,478.3594 Q592.9688,478.5156 593.5156,478.875 Z " fill="#000000"/><text fill="#000000" font-family="sans-serif" font-size="12" lengthAdjust="spacingAndGlyphs" textLength="50" x="611.25" y="487.9102">RpmcLib</text><line style="stroke:#A80036;stroke-width:1.5;" x1="507" x2="733" y1="499" y2="499"/><line style="stroke:#A80036;stroke-width:1.5;" x1="507" x2="733" y1="507" y2="507"/><ellipse cx="517" cy="518" fill="#84BE84" rx="3" ry="3" style="stroke:#038048;stroke-width:1.0;"/><text fill="#000000" font-family="sans-serif" font-size="11" lengthAdjust="spacingAndGlyphs" textLength="202" x="526" y="522.4189">RequestMonotonicCounter (Index, *Value)</text><ellipse cx="517" cy="531.8359" fill="#84BE84" rx="3" ry="3" style="stroke:#038048;stroke-width:1.0;"/><text fill="#000000" font-family="sans-serif" font-size="11" lengthAdjust="spacingAndGlyphs" textLength="171" x="526" y="536.2549">IncrementMonotonicCounter (Index)</text><!--MD5=[70eb30335235e8460ed7daf1d1377d27]
class KeyServicePpi--><rect codeLine="8" fill="#FEFECE" filter="url(#fi1btb6xky9jw)" height="61.8359" id="KeyServicePpi" style="stroke:#A80036;stroke-width:1.5;" width="310" x="161" y="474"/><ellipse cx="272.75" cy="490" fill="#ADD1B2" rx="11" ry="11" style="stroke:#A80036;stroke-width:1.0;"/><path d="M275.5156,485.875 Q275.6719,485.6563 275.8594,485.5469 Q276.0469,485.4375 276.2656,485.4375 Q276.6406,485.4375 276.875,485.7031 Q277.1094,485.9531 277.1094,486.5625 L277.1094,488.0156 Q277.1094,488.625 276.875,488.8906 Q276.6406,489.1563 276.2656,489.1563 Q275.9219,489.1563 275.7188,488.9531 Q275.5156,488.7656 275.4063,488.25 Q275.3594,487.8906 275.1719,487.7031 Q274.8438,487.3281 274.2344,487.1094 Q273.625,486.8906 273,486.8906 Q272.2344,486.8906 271.5938,487.2188 Q270.9688,487.5469 270.4688,488.2969 Q269.9844,489.0469 269.9844,490.0781 L269.9844,491.1719 Q269.9844,492.4063 270.875,493.2344 Q271.7656,494.0469 273.3594,494.0469 Q274.2969,494.0469 274.9531,493.7969 Q275.3438,493.6406 275.7656,493.2031 Q276.0313,492.9375 276.1719,492.8594 Q276.3281,492.7813 276.5313,492.7813 Q276.8594,492.7813 277.1094,493.0469 Q277.375,493.2969 277.375,493.6406 Q277.375,493.9844 277.0313,494.3906 Q276.5313,494.9688 275.7344,495.2969 Q274.6563,495.75 273.3594,495.75 Q271.8438,495.75 270.6406,495.125 Q269.6563,494.625 268.9688,493.5625 Q268.2813,492.4844 268.2813,491.2031 L268.2813,490.0469 Q268.2813,488.7188 268.8906,487.5781 Q269.5156,486.4219 270.6094,485.8125 Q271.7031,485.1875 272.9375,485.1875 Q273.6719,485.1875 274.3125,485.3594 Q274.9688,485.5156 275.5156,485.875 Z " fill="#000000"/><text fill="#000000" font-family="sans-serif" font-size="12" lengthAdjust="spacingAndGlyphs" textLength="78" x="293.25" y="494.9102">KeyServicePpi</text><line style="stroke:#A80036;stroke-width:1.5;" x1="162" x2="470" y1="506" y2="506"/><line style="stroke:#A80036;stroke-width:1.5;" x1="162" x2="470" y1="514" y2="514"/><ellipse cx="172" cy="525" fill="#84BE84" rx="3" ry="3" style="stroke:#038048;stroke-width:1.0;"/><text fill="#000000" font-family="sans-serif" font-size="11" lengthAdjust="spacingAndGlyphs" textLength="284" x="181" y="529.4189">GenerateKey (*Salt, SaltSize, *Key, KeySize, PreviousKey)</text><!--MD5=[afb8c5888421c8b8fc722aead24d95d7]
class ProtectedVariableLib--><rect codeLine="14" fill="#FEFECE" filter="url(#fi1btb6xky9jw)" height="186.3594" id="ProtectedVariableLib" style="stroke:#A80036;stroke-width:1.5;" width="348" x="119" y="42"/><ellipse cx="231.75" cy="58" fill="#ADD1B2" rx="11" ry="11" style="stroke:#A80036;stroke-width:1.0;"/><path d="M234.5156,53.875 Q234.6719,53.6563 234.8594,53.5469 Q235.0469,53.4375 235.2656,53.4375 Q235.6406,53.4375 235.875,53.7031 Q236.1094,53.9531 236.1094,54.5625 L236.1094,56.0156 Q236.1094,56.625 235.875,56.8906 Q235.6406,57.1563 235.2656,57.1563 Q234.9219,57.1563 234.7188,56.9531 Q234.5156,56.7656 234.4063,56.25 Q234.3594,55.8906 234.1719,55.7031 Q233.8438,55.3281 233.2344,55.1094 Q232.625,54.8906 232,54.8906 Q231.2344,54.8906 230.5938,55.2188 Q229.9688,55.5469 229.4688,56.2969 Q228.9844,57.0469 228.9844,58.0781 L228.9844,59.1719 Q228.9844,60.4063 229.875,61.2344 Q230.7656,62.0469 232.3594,62.0469 Q233.2969,62.0469 233.9531,61.7969 Q234.3438,61.6406 234.7656,61.2031 Q235.0313,60.9375 235.1719,60.8594 Q235.3281,60.7813 235.5313,60.7813 Q235.8594,60.7813 236.1094,61.0469 Q236.375,61.2969 236.375,61.6406 Q236.375,61.9844 236.0313,62.3906 Q235.5313,62.9688 234.7344,63.2969 Q233.6563,63.75 232.3594,63.75 Q230.8438,63.75 229.6406,63.125 Q228.6563,62.625 227.9688,61.5625 Q227.2813,60.4844 227.2813,59.2031 L227.2813,58.0469 Q227.2813,56.7188 227.8906,55.5781 Q228.5156,54.4219 229.6094,53.8125 Q230.7031,53.1875 231.9375,53.1875 Q232.6719,53.1875 233.3125,53.3594 Q233.9688,53.5156 234.5156,53.875 Z " fill="#000000"/><text fill="#000000" font-family="sans-serif" font-size="12" lengthAdjust="spacingAndGlyphs" textLength="114" x="252.25" y="62.9102">ProtectedVariableLib</text><line style="stroke:#A80036;stroke-width:1.5;" x1="120" x2="466" y1="74" y2="74"/><line style="stroke:#A80036;stroke-width:1.5;" x1="120" x2="466" y1="82" y2="82"/><ellipse cx="130" cy="93" fill="#84BE84" rx="3" ry="3" style="stroke:#038048;stroke-width:1.0;"/><text fill="#000000" font-family="sans-serif" font-size="11" lengthAdjust="spacingAndGlyphs" textLength="197" x="139" y="97.4189">ProtectedVariableLibInitialize (*ContextIn)</text><ellipse cx="130" cy="106.8359" fill="#84BE84" rx="3" ry="3" style="stroke:#038048;stroke-width:1.0;"/><text fill="#000000" font-family="sans-serif" font-size="11" lengthAdjust="spacingAndGlyphs" textLength="274" x="139" y="111.2549">ProtectedVariableLibFindNext (*NameSize, *Name, *Guid)</text><ellipse cx="130" cy="120.6719" fill="#84BE84" rx="3" ry="3" style="stroke:#038048;stroke-width:1.0;"/><text fill="#000000" font-family="sans-serif" font-size="11" lengthAdjust="spacingAndGlyphs" textLength="205" x="139" y="125.0908">ProtectedVariableLibFindNextEx (*VarInfo)</text><ellipse cx="130" cy="134.5078" fill="#84BE84" rx="3" ry="3" style="stroke:#038048;stroke-width:1.0;"/><text fill="#000000" font-family="sans-serif" font-size="11" lengthAdjust="spacingAndGlyphs" textLength="322" x="139" y="138.9268">ProtectedVariableLibGetByName (*Name, *Guid, *Attr, *Size, *Data)</text><ellipse cx="130" cy="148.3438" fill="#84BE84" rx="3" ry="3" style="stroke:#038048;stroke-width:1.0;"/><text fill="#000000" font-family="sans-serif" font-size="11" lengthAdjust="spacingAndGlyphs" textLength="286" x="139" y="152.7627">ProtectedVariableLibGetByBuffer (*Var, *Size, *Data, Auth)</text><ellipse cx="130" cy="162.1797" fill="#84BE84" rx="3" ry="3" style="stroke:#038048;stroke-width:1.0;"/><text fill="#000000" font-family="sans-serif" font-size="11" lengthAdjust="spacingAndGlyphs" textLength="199" x="139" y="166.5986">ProtectedVariableLibGetByInfo (*VarInfo)</text><ellipse cx="130" cy="176.0156" fill="#84BE84" rx="3" ry="3" style="stroke:#038048;stroke-width:1.0;"/><text fill="#000000" font-family="sans-serif" font-size="11" lengthAdjust="spacingAndGlyphs" textLength="149" x="139" y="180.4346">ProtectedVariableLibWriteInit ()</text><ellipse cx="130" cy="189.8516" fill="#84BE84" rx="3" ry="3" style="stroke:#038048;stroke-width:1.0;"/><text fill="#000000" font-family="sans-serif" font-size="11" lengthAdjust="spacingAndGlyphs" textLength="145" x="139" y="194.2705">ProtectedVariableLibUpdate ()</text><ellipse cx="130" cy="203.6875" fill="#84BE84" rx="3" ry="3" style="stroke:#038048;stroke-width:1.0;"/><text fill="#000000" font-family="sans-serif" font-size="11" lengthAdjust="spacingAndGlyphs" textLength="158" x="139" y="208.1064">ProtectedVariableLibWriteFinal ()</text><ellipse cx="130" cy="217.5234" fill="#84BE84" rx="3" ry="3" style="stroke:#038048;stroke-width:1.0;"/><text fill="#000000" font-family="sans-serif" font-size="11" lengthAdjust="spacingAndGlyphs" textLength="148" x="139" y="221.9424">ProtectedVariableLibReclaim ()</text><!--MD5=[ed35742056c958a2f5dd1c26e7feb0c9]
class EncryptionVariableLib--><rect codeLine="27" fill="#FEFECE" filter="url(#fi1btb6xky9jw)" height="103.3438" id="EncryptionVariableLib" style="stroke:#A80036;stroke-width:1.5;" width="165" x="32.5" y="288"/><ellipse cx="53.8" cy="304" fill="#ADD1B2" rx="11" ry="11" style="stroke:#A80036;stroke-width:1.0;"/><path d="M56.5656,299.875 Q56.7219,299.6563 56.9094,299.5469 Q57.0969,299.4375 57.3156,299.4375 Q57.6906,299.4375 57.925,299.7031 Q58.1594,299.9531 58.1594,300.5625 L58.1594,302.0156 Q58.1594,302.625 57.925,302.8906 Q57.6906,303.1563 57.3156,303.1563 Q56.9719,303.1563 56.7688,302.9531 Q56.5656,302.7656 56.4563,302.25 Q56.4094,301.8906 56.2219,301.7031 Q55.8938,301.3281 55.2844,301.1094 Q54.675,300.8906 54.05,300.8906 Q53.2844,300.8906 52.6438,301.2188 Q52.0188,301.5469 51.5188,302.2969 Q51.0344,303.0469 51.0344,304.0781 L51.0344,305.1719 Q51.0344,306.4063 51.925,307.2344 Q52.8156,308.0469 54.4094,308.0469 Q55.3469,308.0469 56.0031,307.7969 Q56.3938,307.6406 56.8156,307.2031 Q57.0813,306.9375 57.2219,306.8594 Q57.3781,306.7813 57.5813,306.7813 Q57.9094,306.7813 58.1594,307.0469 Q58.425,307.2969 58.425,307.6406 Q58.425,307.9844 58.0813,308.3906 Q57.5813,308.9688 56.7844,309.2969 Q55.7063,309.75 54.4094,309.75 Q52.8938,309.75 51.6906,309.125 Q50.7063,308.625 50.0188,307.5625 Q49.3313,306.4844 49.3313,305.2031 L49.3313,304.0469 Q49.3313,302.7188 49.9406,301.5781 Q50.5656,300.4219 51.6594,299.8125 Q52.7531,299.1875 53.9875,299.1875 Q54.7219,299.1875 55.3625,299.3594 Q56.0188,299.5156 56.5656,299.875 Z " fill="#000000"/><text fill="#000000" font-family="sans-serif" font-size="12" lengthAdjust="spacingAndGlyphs" textLength="119" x="69.2" y="308.9102">EncryptionVariableLib</text><line style="stroke:#A80036;stroke-width:1.5;" x1="33.5" x2="196.5" y1="320" y2="320"/><line style="stroke:#A80036;stroke-width:1.5;" x1="33.5" x2="196.5" y1="328" y2="328"/><ellipse cx="43.5" cy="339" fill="#84BE84" rx="3" ry="3" style="stroke:#038048;stroke-width:1.0;"/><text fill="#000000" font-family="sans-serif" font-size="11" lengthAdjust="spacingAndGlyphs" textLength="128" x="52.5" y="343.4189">EncryptVariable (*VarInfo)</text><ellipse cx="43.5" cy="352.8359" fill="#84BE84" rx="3" ry="3" style="stroke:#038048;stroke-width:1.0;"/><text fill="#000000" font-family="sans-serif" font-size="11" lengthAdjust="spacingAndGlyphs" textLength="129" x="52.5" y="357.2549">DecryptVariable (*VarInfo)</text><ellipse cx="43.5" cy="366.6719" fill="#84BE84" rx="3" ry="3" style="stroke:#038048;stroke-width:1.0;"/><text fill="#000000" font-family="sans-serif" font-size="11" lengthAdjust="spacingAndGlyphs" textLength="139" x="52.5" y="371.0908">GetCipherDataInfo (*VarInfo)</text><ellipse cx="43.5" cy="380.5078" fill="#84BE84" rx="3" ry="3" style="stroke:#038048;stroke-width:1.0;"/><text fill="#000000" font-family="sans-serif" font-size="11" lengthAdjust="spacingAndGlyphs" textLength="138" x="52.5" y="384.9268">SetCipherDataInfo (*VarInfo)</text><!--MD5=[0686b0621f3c5f885e03994da0dee36b]
class VariableKeyLib--><rect codeLine="34" fill="#FEFECE" filter="url(#fi1btb6xky9jw)" height="89.5078" id="VariableKeyLib" style="stroke:#A80036;stroke-width:1.5;" width="234" x="233" y="294.5"/><ellipse cx="304.75" cy="310.5" fill="#ADD1B2" rx="11" ry="11" style="stroke:#A80036;stroke-width:1.0;"/><path d="M307.5156,306.375 Q307.6719,306.1563 307.8594,306.0469 Q308.0469,305.9375 308.2656,305.9375 Q308.6406,305.9375 308.875,306.2031 Q309.1094,306.4531 309.1094,307.0625 L309.1094,308.5156 Q309.1094,309.125 308.875,309.3906 Q308.6406,309.6563 308.2656,309.6563 Q307.9219,309.6563 307.7188,309.4531 Q307.5156,309.2656 307.4063,308.75 Q307.3594,308.3906 307.1719,308.2031 Q306.8438,307.8281 306.2344,307.6094 Q305.625,307.3906 305,307.3906 Q304.2344,307.3906 303.5938,307.7188 Q302.9688,308.0469 302.4688,308.7969 Q301.9844,309.5469 301.9844,310.5781 L301.9844,311.6719 Q301.9844,312.9063 302.875,313.7344 Q303.7656,314.5469 305.3594,314.5469 Q306.2969,314.5469 306.9531,314.2969 Q307.3438,314.1406 307.7656,313.7031 Q308.0313,313.4375 308.1719,313.3594 Q308.3281,313.2813 308.5313,313.2813 Q308.8594,313.2813 309.1094,313.5469 Q309.375,313.7969 309.375,314.1406 Q309.375,314.4844 309.0313,314.8906 Q308.5313,315.4688 307.7344,315.7969 Q306.6563,316.25 305.3594,316.25 Q303.8438,316.25 302.6406,315.625 Q301.6563,315.125 300.9688,314.0625 Q300.2813,312.9844 300.2813,311.7031 L300.2813,310.5469 Q300.2813,309.2188 300.8906,308.0781 Q301.5156,306.9219 302.6094,306.3125 Q303.7031,305.6875 304.9375,305.6875 Q305.6719,305.6875 306.3125,305.8594 Q306.9688,306.0156 307.5156,306.375 Z " fill="#000000"/><text fill="#000000" font-family="sans-serif" font-size="12" lengthAdjust="spacingAndGlyphs" textLength="82" x="325.25" y="315.4102">VariableKeyLib</text><line style="stroke:#A80036;stroke-width:1.5;" x1="234" x2="466" y1="326.5" y2="326.5"/><line style="stroke:#A80036;stroke-width:1.5;" x1="234" x2="466" y1="334.5" y2="334.5"/><ellipse cx="244" cy="345.5" fill="#84BE84" rx="3" ry="3" style="stroke:#038048;stroke-width:1.0;"/><text fill="#000000" font-family="sans-serif" font-size="11" lengthAdjust="spacingAndGlyphs" textLength="208" x="253" y="349.9189">GetVariableKey (*Key, *Size, PreviousKey)</text><ellipse cx="244" cy="359.3359" fill="#84BE84" rx="3" ry="3" style="stroke:#038048;stroke-width:1.0;"/><text fill="#000000" font-family="sans-serif" font-size="11" lengthAdjust="spacingAndGlyphs" textLength="126" x="253" y="363.7549">RegenerateVariableKey ()</text><ellipse cx="244" cy="373.1719" fill="#84BE84" rx="3" ry="3" style="stroke:#038048;stroke-width:1.0;"/><text fill="#000000" font-family="sans-serif" font-size="11" lengthAdjust="spacingAndGlyphs" textLength="136" x="253" y="377.5908">LockVariableKeyInterface ()</text><!--MD5=[89ea96bfe4f9721cb2a0409c9be65ae8]
link ProtectedVariableLib to EncryptionVariableLib--><path codeLine="41" d="M212.07,228.07 C195.25,247.2 178.05,266.78 162.88,284.03 " fill="none" id="ProtectedVariableLib-to-EncryptionVariableLib" style="stroke:#A80036;stroke-width:1.0;"/><polygon fill="#A80036" points="159.47,287.9,168.4146,283.7776,162.7696,284.1433,162.4039,278.4983,159.47,287.9" style="stroke:#A80036;stroke-width:1.0;"/><!--MD5=[3be6c3d0ddb5abe4704b964704c3c48d]
link ProtectedVariableLib to RpmcLib--><path codeLine="42" d="M421.13,228.05 C443.28,246.66 465.2,267 484,288 C532.73,342.42 575.09,416.31 599.08,462.04 " fill="none" id="ProtectedVariableLib-to-RpmcLib" style="stroke:#A80036;stroke-width:1.0;"/><polygon fill="#A80036" points="601.49,466.65,600.8797,456.8201,599.1801,462.2156,593.7846,460.5159,601.49,466.65" style="stroke:#A80036;stroke-width:1.0;"/><!--MD5=[2b0bd7990354023ad361749f60944e7d]
link ProtectedVariableLib to VariableKeyLib--><path codeLine="43" d="M318.91,228.07 C324.86,249.17 330.95,270.81 336.15,289.28 " fill="none" id="ProtectedVariableLib-to-VariableKeyLib" style="stroke:#A80036;stroke-width:1.0;"/><polygon fill="#A80036" points="337.59,294.41,338.998,284.6623,336.2334,289.5976,331.2981,286.8329,337.59,294.41" style="stroke:#A80036;stroke-width:1.0;"/><!--MD5=[ad74ed884bc633acf8434e03ba738e28]
link VariableKeyLib to KeyServicePpi--><path codeLine="44" d="M340.8,384.75 C335.31,411.14 328.43,444.21 323.32,468.82 " fill="none" id="VariableKeyLib-to-KeyServicePpi" style="stroke:#A80036;stroke-width:1.0;"/><polygon fill="#A80036" points="322.25,473.94,328.0183,465.9571,323.2801,469.0473,320.1899,464.309,322.25,473.94" style="stroke:#A80036;stroke-width:1.0;"/><!--MD5=[597bb07d667076f55e551d405b98aad4]
@startuml LibraryClasses

    package platform {
      class RpmcLib {
        +RequestMonotonicCounter (Index, *Value)
        +IncrementMonotonicCounter (Index)
      }

      class KeyServicePpi {
        +GenerateKey (*Salt, SaltSize, *Key, KeySize, PreviousKey)
      }
    }

    package edk2 {
      class ProtectedVariableLib {
        +ProtectedVariableLibInitialize (*ContextIn)
        +ProtectedVariableLibFindNext (*NameSize, *Name, *Guid)
        +ProtectedVariableLibFindNextEx (*VarInfo)
        +ProtectedVariableLibGetByName (*Name, *Guid, *Attr, *Size, *Data)
        +ProtectedVariableLibGetByBuffer (*Var, *Size, *Data, Auth)
        +ProtectedVariableLibGetByInfo (*VarInfo)
        +ProtectedVariableLibWriteInit ()
        +ProtectedVariableLibUpdate ()
        +ProtectedVariableLibWriteFinal ()
        +ProtectedVariableLibReclaim ()
      }

      class EncryptionVariableLib {
        +EncryptVariable (*VarInfo)
        +DecryptVariable (*VarInfo)
        +GetCipherDataInfo (*VarInfo)
        +SetCipherDataInfo (*VarInfo)
      }

      class VariableKeyLib {
        +GetVariableKey (*Key, *Size, PreviousKey)
        +RegenerateVariableKey ()
        +LockVariableKeyInterface ()
      }
    }

    ProtectedVariableLib - -> EncryptionVariableLib
    ProtectedVariableLib - -> RpmcLib
    ProtectedVariableLib - -> VariableKeyLib
    VariableKeyLib - -> KeyServicePpi

@enduml

PlantUML version 1.2020.26(Tue Dec 22 01:45:07 CST 2020)
(GPL source distribution)
Java Runtime: OpenJDK Runtime Environment
JVM: OpenJDK 64-Bit Server VM
Default Encoding: Cp1252
Language: en
Country: US
--></g></svg>