<?xml version="1.0" encoding="UTF-8" standalone="no"?><svg xmlns="http://www.w3.org/2000/svg" xmlns:xlink="http://www.w3.org/1999/xlink" contentScriptType="application/ecmascript" contentStyleType="text/css" height="315px" preserveAspectRatio="none" style="width:925px;height:315px;" version="1.1" viewBox="0 0 925 315" width="925px" zoomAndPan="magnify"><defs><filter height="300%" id="f13rrqt8l9nxez" width="300%" x="-1" y="-1"><feGaussianBlur result="blurOut" stdDeviation="2.0"/><feColorMatrix in="blurOut" result="blurOut2" type="matrix" values="0 0 0 0 0 0 0 0 0 0 0 0 0 0 0 0 0 0 .4 0"/><feOffset dx="4.0" dy="4.0" in="blurOut2" result="blurOut3"/><feBlend in="SourceGraphic" in2="blurOut3" mode="normal"/></filter></defs><g><!--MD5=[afb8c5888421c8b8fc722aead24d95d7]
class ProtectedVariableLib--><rect fill="#FEFECE" filter="url(#f13rrqt8l9nxez)" height="48" id="ProtectedVariableLib" style="stroke:#A80036;stroke-width:1.5;" width="146" x="342.5" y="7"/><ellipse cx="357.5" cy="23" fill="#ADD1B2" rx="11" ry="11" style="stroke:#A80036;stroke-width:1.0;"/><path d="M360.2656,18.875 Q360.4219,18.6563 360.6094,18.5469 Q360.7969,18.4375 361.0156,18.4375 Q361.3906,18.4375 361.625,18.7031 Q361.8594,18.9531 361.8594,19.5625 L361.8594,21.0156 Q361.8594,21.625 361.625,21.8906 Q361.3906,22.1563 361.0156,22.1563 Q360.6719,22.1563 360.4688,21.9531 Q360.2656,21.7656 360.1563,21.25 Q360.1094,20.8906 359.9219,20.7031 Q359.5938,20.3281 358.9844,20.1094 Q358.375,19.8906 357.75,19.8906 Q356.9844,19.8906 356.3438,20.2188 Q355.7188,20.5469 355.2188,21.2969 Q354.7344,22.0469 354.7344,23.0781 L354.7344,24.1719 Q354.7344,25.4063 355.625,26.2344 Q356.5156,27.0469 358.1094,27.0469 Q359.0469,27.0469 359.7031,26.7969 Q360.0938,26.6406 360.5156,26.2031 Q360.7813,25.9375 360.9219,25.8594 Q361.0781,25.7813 361.2813,25.7813 Q361.6094,25.7813 361.8594,26.0469 Q362.125,26.2969 362.125,26.6406 Q362.125,26.9844 361.7813,27.3906 Q361.2813,27.9688 360.4844,28.2969 Q359.4063,28.75 358.1094,28.75 Q356.5938,28.75 355.3906,28.125 Q354.4063,27.625 353.7188,26.5625 Q353.0313,25.4844 353.0313,24.2031 L353.0313,23.0469 Q353.0313,21.7188 353.6406,20.5781 Q354.2656,19.4219 355.3594,18.8125 Q356.4531,18.1875 357.6875,18.1875 Q358.4219,18.1875 359.0625,18.3594 Q359.7188,18.5156 360.2656,18.875 Z " fill="#000000"/><text fill="#000000" font-family="sans-serif" font-size="12" lengthAdjust="spacingAndGlyphs" textLength="114" x="371.5" y="27.9102">ProtectedVariableLib</text><line style="stroke:#A80036;stroke-width:1.5;" x1="343.5" x2="487.5" y1="39" y2="39"/><line style="stroke:#A80036;stroke-width:1.5;" x1="343.5" x2="487.5" y1="47" y2="47"/><!--MD5=[34f4a1c1dfb393523b65164ab4c8089f]
class PeiProtectedVariableLib--><rect fill="#FEFECE" filter="url(#f13rrqt8l9nxez)" height="131.0156" id="PeiProtectedVariableLib" style="stroke:#A80036;stroke-width:1.5;" width="181" x="7" y="142.5"/><ellipse cx="29.65" cy="158.5" fill="#ADD1B2" rx="11" ry="11" style="stroke:#A80036;stroke-width:1.0;"/><path d="M32.4156,154.375 Q32.5719,154.1563 32.7594,154.0469 Q32.9469,153.9375 33.1656,153.9375 Q33.5406,153.9375 33.775,154.2031 Q34.0094,154.4531 34.0094,155.0625 L34.0094,156.5156 Q34.0094,157.125 33.775,157.3906 Q33.5406,157.6563 33.1656,157.6563 Q32.8219,157.6563 32.6188,157.4531 Q32.4156,157.2656 32.3063,156.75 Q32.2594,156.3906 32.0719,156.2031 Q31.7438,155.8281 31.1344,155.6094 Q30.525,155.3906 29.9,155.3906 Q29.1344,155.3906 28.4938,155.7188 Q27.8688,156.0469 27.3688,156.7969 Q26.8844,157.5469 26.8844,158.5781 L26.8844,159.6719 Q26.8844,160.9063 27.775,161.7344 Q28.6656,162.5469 30.2594,162.5469 Q31.1969,162.5469 31.8531,162.2969 Q32.2438,162.1406 32.6656,161.7031 Q32.9313,161.4375 33.0719,161.3594 Q33.2281,161.2813 33.4313,161.2813 Q33.7594,161.2813 34.0094,161.5469 Q34.275,161.7969 34.275,162.1406 Q34.275,162.4844 33.9313,162.8906 Q33.4313,163.4688 32.6344,163.7969 Q31.5563,164.25 30.2594,164.25 Q28.7438,164.25 27.5406,163.625 Q26.5563,163.125 25.8688,162.0625 Q25.1813,160.9844 25.1813,159.7031 L25.1813,158.5469 Q25.1813,157.2188 25.7906,156.0781 Q26.4156,154.9219 27.5094,154.3125 Q28.6031,153.6875 29.8375,153.6875 Q30.5719,153.6875 31.2125,153.8594 Q31.8688,154.0156 32.4156,154.375 Z " fill="#000000"/><text fill="#000000" font-family="sans-serif" font-size="12" lengthAdjust="spacingAndGlyphs" textLength="132" x="45.35" y="163.4102">PeiProtectedVariableLib</text><line style="stroke:#A80036;stroke-width:1.5;" x1="8" x2="187" y1="174.5" y2="174.5"/><line style="stroke:#A80036;stroke-width:1.5;" x1="8" x2="187" y1="182.5" y2="182.5"/><text fill="#000000" font-family="sans-serif" font-size="11" lengthAdjust="spacingAndGlyphs" textLength="145" x="13" y="197.9189">ProtectedVariableLibInitialize()</text><text fill="#000000" font-family="sans-serif" font-size="11" lengthAdjust="spacingAndGlyphs" textLength="165" x="13" y="211.7549">ProtectedVariableLibGetByName()</text><text fill="#000000" font-family="sans-serif" font-size="11" lengthAdjust="spacingAndGlyphs" textLength="169" x="13" y="225.5908">ProtectedVariableLibGetByBuffer()</text><text fill="#000000" font-family="sans-serif" font-size="11" lengthAdjust="spacingAndGlyphs" textLength="156" x="13" y="239.4268">ProtectedVariableLibGetByInfo()</text><text fill="#000000" font-family="sans-serif" font-size="11" lengthAdjust="spacingAndGlyphs" textLength="150" x="13" y="253.2627">ProtectedVariableLibFindNext()</text><text fill="#000000" font-family="sans-serif" font-size="11" lengthAdjust="spacingAndGlyphs" textLength="162" x="13" y="267.0986">ProtectedVariableLibFindNextEx()</text><!--MD5=[ec6aead86a0f9085d5a540f89164aa0d]
class SmmProtectedVariableLib--><rect fill="#FEFECE" filter="url(#f13rrqt8l9nxez)" height="186.3594" id="SmmProtectedVariableLib" style="stroke:#A80036;stroke-width:1.5;" width="181" x="223" y="115"/><ellipse cx="240.25" cy="131" fill="#ADD1B2" rx="11" ry="11" style="stroke:#A80036;stroke-width:1.0;"/><path d="M243.0156,126.875 Q243.1719,126.6563 243.3594,126.5469 Q243.5469,126.4375 243.7656,126.4375 Q244.1406,126.4375 244.375,126.7031 Q244.6094,126.9531 244.6094,127.5625 L244.6094,129.0156 Q244.6094,129.625 244.375,129.8906 Q244.1406,130.1563 243.7656,130.1563 Q243.4219,130.1563 243.2188,129.9531 Q243.0156,129.7656 242.9063,129.25 Q242.8594,128.8906 242.6719,128.7031 Q242.3438,128.3281 241.7344,128.1094 Q241.125,127.8906 240.5,127.8906 Q239.7344,127.8906 239.0938,128.2188 Q238.4688,128.5469 237.9688,129.2969 Q237.4844,130.0469 237.4844,131.0781 L237.4844,132.1719 Q237.4844,133.4063 238.375,134.2344 Q239.2656,135.0469 240.8594,135.0469 Q241.7969,135.0469 242.4531,134.7969 Q242.8438,134.6406 243.2656,134.2031 Q243.5313,133.9375 243.6719,133.8594 Q243.8281,133.7813 244.0313,133.7813 Q244.3594,133.7813 244.6094,134.0469 Q244.875,134.2969 244.875,134.6406 Q244.875,134.9844 244.5313,135.3906 Q244.0313,135.9688 243.2344,136.2969 Q242.1563,136.75 240.8594,136.75 Q239.3438,136.75 238.1406,136.125 Q237.1563,135.625 236.4688,134.5625 Q235.7813,133.4844 235.7813,132.2031 L235.7813,131.0469 Q235.7813,129.7188 236.3906,128.5781 Q237.0156,127.4219 238.1094,126.8125 Q239.2031,126.1875 240.4375,126.1875 Q241.1719,126.1875 241.8125,126.3594 Q242.4688,126.5156 243.0156,126.875 Z " fill="#000000"/><text fill="#000000" font-family="sans-serif" font-size="12" lengthAdjust="spacingAndGlyphs" textLength="144" x="254.75" y="135.9102">SmmProtectedVariableLib</text><line style="stroke:#A80036;stroke-width:1.5;" x1="224" x2="403" y1="147" y2="147"/><line style="stroke:#A80036;stroke-width:1.5;" x1="224" x2="403" y1="155" y2="155"/><text fill="#000000" font-family="sans-serif" font-size="11" lengthAdjust="spacingAndGlyphs" textLength="145" x="229" y="170.4189">ProtectedVariableLibInitialize()</text><text fill="#000000" font-family="sans-serif" font-size="11" lengthAdjust="spacingAndGlyphs" textLength="150" x="229" y="184.2549">ProtectedVariableLibFindNext()</text><text fill="#000000" font-family="sans-serif" font-size="11" lengthAdjust="spacingAndGlyphs" textLength="162" x="229" y="198.0908">ProtectedVariableLibFindNextEx()</text><text fill="#000000" font-family="sans-serif" font-size="11" lengthAdjust="spacingAndGlyphs" textLength="165" x="229" y="211.9268">ProtectedVariableLibGetByName()</text><text fill="#000000" font-family="sans-serif" font-size="11" lengthAdjust="spacingAndGlyphs" textLength="169" x="229" y="225.7627">ProtectedVariableLibGetByBuffer()</text><text fill="#000000" font-family="sans-serif" font-size="11" lengthAdjust="spacingAndGlyphs" textLength="156" x="229" y="239.5986">ProtectedVariableLibGetByInfo()</text><text fill="#000000" font-family="sans-serif" font-size="11" lengthAdjust="spacingAndGlyphs" textLength="146" x="229" y="253.4346">ProtectedVariableLibWriteInit()</text><text fill="#000000" font-family="sans-serif" font-size="11" lengthAdjust="spacingAndGlyphs" textLength="155" x="229" y="267.2705">ProtectedVariableLibWriteFinal()</text><text fill="#000000" font-family="sans-serif" font-size="11" lengthAdjust="spacingAndGlyphs" textLength="142" x="229" y="281.1064">ProtectedVariableLibUpdate()</text><text fill="#000000" font-family="sans-serif" font-size="11" lengthAdjust="spacingAndGlyphs" textLength="145" x="229" y="294.9424">ProtectedVariableLibReclaim()</text><!--MD5=[0ac4a10d286f63eb68a54a5fff4564aa]
class SmmRuntimeProtectedVariableLib--><rect fill="#FEFECE" filter="url(#f13rrqt8l9nxez)" height="75.6719" id="SmmRuntimeProtectedVariableLib" style="stroke:#A80036;stroke-width:1.5;" width="223" x="439" y="170"/><ellipse cx="454" cy="186" fill="#ADD1B2" rx="11" ry="11" style="stroke:#A80036;stroke-width:1.0;"/><path d="M456.7656,181.875 Q456.9219,181.6563 457.1094,181.5469 Q457.2969,181.4375 457.5156,181.4375 Q457.8906,181.4375 458.125,181.7031 Q458.3594,181.9531 458.3594,182.5625 L458.3594,184.0156 Q458.3594,184.625 458.125,184.8906 Q457.8906,185.1563 457.5156,185.1563 Q457.1719,185.1563 456.9688,184.9531 Q456.7656,184.7656 456.6563,184.25 Q456.6094,183.8906 456.4219,183.7031 Q456.0938,183.3281 455.4844,183.1094 Q454.875,182.8906 454.25,182.8906 Q453.4844,182.8906 452.8438,183.2188 Q452.2188,183.5469 451.7188,184.2969 Q451.2344,185.0469 451.2344,186.0781 L451.2344,187.1719 Q451.2344,188.4063 452.125,189.2344 Q453.0156,190.0469 454.6094,190.0469 Q455.5469,190.0469 456.2031,189.7969 Q456.5938,189.6406 457.0156,189.2031 Q457.2813,188.9375 457.4219,188.8594 Q457.5781,188.7813 457.7813,188.7813 Q458.1094,188.7813 458.3594,189.0469 Q458.625,189.2969 458.625,189.6406 Q458.625,189.9844 458.2813,190.3906 Q457.7813,190.9688 456.9844,191.2969 Q455.9063,191.75 454.6094,191.75 Q453.0938,191.75 451.8906,191.125 Q450.9063,190.625 450.2188,189.5625 Q449.5313,188.4844 449.5313,187.2031 L449.5313,186.0469 Q449.5313,184.7188 450.1406,183.5781 Q450.7656,182.4219 451.8594,181.8125 Q452.9531,181.1875 454.1875,181.1875 Q454.9219,181.1875 455.5625,181.3594 Q456.2188,181.5156 456.7656,181.875 Z " fill="#000000"/><text fill="#000000" font-family="sans-serif" font-size="12" lengthAdjust="spacingAndGlyphs" textLength="191" x="468" y="190.9102">SmmRuntimeProtectedVariableLib</text><line style="stroke:#A80036;stroke-width:1.5;" x1="440" x2="661" y1="202" y2="202"/><line style="stroke:#A80036;stroke-width:1.5;" x1="440" x2="661" y1="210" y2="210"/><text fill="#000000" font-family="sans-serif" font-size="11" lengthAdjust="spacingAndGlyphs" textLength="145" x="445" y="225.4189">ProtectedVariableLibInitialize()</text><text fill="#000000" font-family="sans-serif" font-size="11" lengthAdjust="spacingAndGlyphs" textLength="165" x="445" y="239.2549">ProtectedVariableLibGetByName()</text><!--MD5=[6e571fb3aff5142bdcd73a1164a61e9f]
class DxeRuntimeProtectedVariableLib--><rect fill="#FEFECE" filter="url(#f13rrqt8l9nxez)" height="186.3594" id="DxeRuntimeProtectedVariableLib" style="stroke:#A80036;stroke-width:1.5;" width="214" x="697.5" y="115"/><ellipse cx="712.5" cy="131" fill="#ADD1B2" rx="11" ry="11" style="stroke:#A80036;stroke-width:1.0;"/><path d="M715.2656,126.875 Q715.4219,126.6563 715.6094,126.5469 Q715.7969,126.4375 716.0156,126.4375 Q716.3906,126.4375 716.625,126.7031 Q716.8594,126.9531 716.8594,127.5625 L716.8594,129.0156 Q716.8594,129.625 716.625,129.8906 Q716.3906,130.1563 716.0156,130.1563 Q715.6719,130.1563 715.4688,129.9531 Q715.2656,129.7656 715.1563,129.25 Q715.1094,128.8906 714.9219,128.7031 Q714.5938,128.3281 713.9844,128.1094 Q713.375,127.8906 712.75,127.8906 Q711.9844,127.8906 711.3438,128.2188 Q710.7188,128.5469 710.2188,129.2969 Q709.7344,130.0469 709.7344,131.0781 L709.7344,132.1719 Q709.7344,133.4063 710.625,134.2344 Q711.5156,135.0469 713.1094,135.0469 Q714.0469,135.0469 714.7031,134.7969 Q715.0938,134.6406 715.5156,134.2031 Q715.7813,133.9375 715.9219,133.8594 Q716.0781,133.7813 716.2813,133.7813 Q716.6094,133.7813 716.8594,134.0469 Q717.125,134.2969 717.125,134.6406 Q717.125,134.9844 716.7813,135.3906 Q716.2813,135.9688 715.4844,136.2969 Q714.4063,136.75 713.1094,136.75 Q711.5938,136.75 710.3906,136.125 Q709.4063,135.625 708.7188,134.5625 Q708.0313,133.4844 708.0313,132.2031 L708.0313,131.0469 Q708.0313,129.7188 708.6406,128.5781 Q709.2656,127.4219 710.3594,126.8125 Q711.4531,126.1875 712.6875,126.1875 Q713.4219,126.1875 714.0625,126.3594 Q714.7188,126.5156 715.2656,126.875 Z " fill="#000000"/><text fill="#000000" font-family="sans-serif" font-size="12" lengthAdjust="spacingAndGlyphs" textLength="182" x="726.5" y="135.9102">DxeRuntimeProtectedVariableLib</text><line style="stroke:#A80036;stroke-width:1.5;" x1="698.5" x2="910.5" y1="147" y2="147"/><line style="stroke:#A80036;stroke-width:1.5;" x1="698.5" x2="910.5" y1="155" y2="155"/><text fill="#000000" font-family="sans-serif" font-size="11" lengthAdjust="spacingAndGlyphs" textLength="145" x="703.5" y="170.4189">ProtectedVariableLibInitialize()</text><text fill="#000000" font-family="sans-serif" font-size="11" lengthAdjust="spacingAndGlyphs" textLength="150" x="703.5" y="184.2549">ProtectedVariableLibFindNext()</text><text fill="#000000" font-family="sans-serif" font-size="11" lengthAdjust="spacingAndGlyphs" textLength="162" x="703.5" y="198.0908">ProtectedVariableLibFindNextEx()</text><text fill="#000000" font-family="sans-serif" font-size="11" lengthAdjust="spacingAndGlyphs" textLength="165" x="703.5" y="211.9268">ProtectedVariableLibGetByName()</text><text fill="#000000" font-family="sans-serif" font-size="11" lengthAdjust="spacingAndGlyphs" textLength="169" x="703.5" y="225.7627">ProtectedVariableLibGetByBuffer()</text><text fill="#000000" font-family="sans-serif" font-size="11" lengthAdjust="spacingAndGlyphs" textLength="156" x="703.5" y="239.5986">ProtectedVariableLibGetByInfo()</text><text fill="#000000" font-family="sans-serif" font-size="11" lengthAdjust="spacingAndGlyphs" textLength="146" x="703.5" y="253.4346">ProtectedVariableLibWriteInit()</text><text fill="#000000" font-family="sans-serif" font-size="11" lengthAdjust="spacingAndGlyphs" textLength="142" x="703.5" y="267.2705">ProtectedVariableLibUpdate()</text><text fill="#000000" font-family="sans-serif" font-size="11" lengthAdjust="spacingAndGlyphs" textLength="155" x="703.5" y="281.1064">ProtectedVariableLibWriteFinal()</text><text fill="#000000" font-family="sans-serif" font-size="11" lengthAdjust="spacingAndGlyphs" textLength="145" x="703.5" y="294.9424">ProtectedVariableLibReclaim()</text><!--MD5=[62a9ada6bce8d12c6bf62acd68507929]
class VariablePei--><rect fill="#FEFECE" filter="url(#f13rrqt8l9nxez)" height="48" id="VariablePei" style="stroke:#A80036;stroke-width:1.5;" width="95" x="50" y="7"/><ellipse cx="65" cy="23" fill="#ADD1B2" rx="11" ry="11" style="stroke:#A80036;stroke-width:1.0;"/><path d="M67.7656,18.875 Q67.9219,18.6563 68.1094,18.5469 Q68.2969,18.4375 68.5156,18.4375 Q68.8906,18.4375 69.125,18.7031 Q69.3594,18.9531 69.3594,19.5625 L69.3594,21.0156 Q69.3594,21.625 69.125,21.8906 Q68.8906,22.1563 68.5156,22.1563 Q68.1719,22.1563 67.9688,21.9531 Q67.7656,21.7656 67.6563,21.25 Q67.6094,20.8906 67.4219,20.7031 Q67.0938,20.3281 66.4844,20.1094 Q65.875,19.8906 65.25,19.8906 Q64.4844,19.8906 63.8438,20.2188 Q63.2188,20.5469 62.7188,21.2969 Q62.2344,22.0469 62.2344,23.0781 L62.2344,24.1719 Q62.2344,25.4063 63.125,26.2344 Q64.0156,27.0469 65.6094,27.0469 Q66.5469,27.0469 67.2031,26.7969 Q67.5938,26.6406 68.0156,26.2031 Q68.2813,25.9375 68.4219,25.8594 Q68.5781,25.7813 68.7813,25.7813 Q69.1094,25.7813 69.3594,26.0469 Q69.625,26.2969 69.625,26.6406 Q69.625,26.9844 69.2813,27.3906 Q68.7813,27.9688 67.9844,28.2969 Q66.9063,28.75 65.6094,28.75 Q64.0938,28.75 62.8906,28.125 Q61.9063,27.625 61.2188,26.5625 Q60.5313,25.4844 60.5313,24.2031 L60.5313,23.0469 Q60.5313,21.7188 61.1406,20.5781 Q61.7656,19.4219 62.8594,18.8125 Q63.9531,18.1875 65.1875,18.1875 Q65.9219,18.1875 66.5625,18.3594 Q67.2188,18.5156 67.7656,18.875 Z " fill="#000000"/><text fill="#000000" font-family="sans-serif" font-size="12" lengthAdjust="spacingAndGlyphs" textLength="63" x="79" y="27.9102">VariablePei</text><line style="stroke:#A80036;stroke-width:1.5;" x1="51" x2="144" y1="39" y2="39"/><line style="stroke:#A80036;stroke-width:1.5;" x1="51" x2="144" y1="47" y2="47"/><!--MD5=[c74c7105d2acb3f87eb9eb5e7567207c]
class VariableSmm--><rect fill="#FEFECE" filter="url(#f13rrqt8l9nxez)" height="48" id="VariableSmm" style="stroke:#A80036;stroke-width:1.5;" width="107" x="200" y="7"/><ellipse cx="215" cy="23" fill="#ADD1B2" rx="11" ry="11" style="stroke:#A80036;stroke-width:1.0;"/><path d="M217.7656,18.875 Q217.9219,18.6563 218.1094,18.5469 Q218.2969,18.4375 218.5156,18.4375 Q218.8906,18.4375 219.125,18.7031 Q219.3594,18.9531 219.3594,19.5625 L219.3594,21.0156 Q219.3594,21.625 219.125,21.8906 Q218.8906,22.1563 218.5156,22.1563 Q218.1719,22.1563 217.9688,21.9531 Q217.7656,21.7656 217.6563,21.25 Q217.6094,20.8906 217.4219,20.7031 Q217.0938,20.3281 216.4844,20.1094 Q215.875,19.8906 215.25,19.8906 Q214.4844,19.8906 213.8438,20.2188 Q213.2188,20.5469 212.7188,21.2969 Q212.2344,22.0469 212.2344,23.0781 L212.2344,24.1719 Q212.2344,25.4063 213.125,26.2344 Q214.0156,27.0469 215.6094,27.0469 Q216.5469,27.0469 217.2031,26.7969 Q217.5938,26.6406 218.0156,26.2031 Q218.2813,25.9375 218.4219,25.8594 Q218.5781,25.7813 218.7813,25.7813 Q219.1094,25.7813 219.3594,26.0469 Q219.625,26.2969 219.625,26.6406 Q219.625,26.9844 219.2813,27.3906 Q218.7813,27.9688 217.9844,28.2969 Q216.9063,28.75 215.6094,28.75 Q214.0938,28.75 212.8906,28.125 Q211.9063,27.625 211.2188,26.5625 Q210.5313,25.4844 210.5313,24.2031 L210.5313,23.0469 Q210.5313,21.7188 211.1406,20.5781 Q211.7656,19.4219 212.8594,18.8125 Q213.9531,18.1875 215.1875,18.1875 Q215.9219,18.1875 216.5625,18.3594 Q217.2188,18.5156 217.7656,18.875 Z " fill="#000000"/><text fill="#000000" font-family="sans-serif" font-size="12" lengthAdjust="spacingAndGlyphs" textLength="75" x="229" y="27.9102">VariableSmm</text><line style="stroke:#A80036;stroke-width:1.5;" x1="201" x2="306" y1="39" y2="39"/><line style="stroke:#A80036;stroke-width:1.5;" x1="201" x2="306" y1="47" y2="47"/><!--MD5=[aff4c3907a9f87d66e5767ea58251519]
class VariableSmmRuntime--><rect fill="#FEFECE" filter="url(#f13rrqt8l9nxez)" height="48" id="VariableSmmRuntime" style="stroke:#A80036;stroke-width:1.5;" width="154" x="523.5" y="7"/><ellipse cx="538.5" cy="23" fill="#ADD1B2" rx="11" ry="11" style="stroke:#A80036;stroke-width:1.0;"/><path d="M541.2656,18.875 Q541.4219,18.6563 541.6094,18.5469 Q541.7969,18.4375 542.0156,18.4375 Q542.3906,18.4375 542.625,18.7031 Q542.8594,18.9531 542.8594,19.5625 L542.8594,21.0156 Q542.8594,21.625 542.625,21.8906 Q542.3906,22.1563 542.0156,22.1563 Q541.6719,22.1563 541.4688,21.9531 Q541.2656,21.7656 541.1563,21.25 Q541.1094,20.8906 540.9219,20.7031 Q540.5938,20.3281 539.9844,20.1094 Q539.375,19.8906 538.75,19.8906 Q537.9844,19.8906 537.3438,20.2188 Q536.7188,20.5469 536.2188,21.2969 Q535.7344,22.0469 535.7344,23.0781 L535.7344,24.1719 Q535.7344,25.4063 536.625,26.2344 Q537.5156,27.0469 539.1094,27.0469 Q540.0469,27.0469 540.7031,26.7969 Q541.0938,26.6406 541.5156,26.2031 Q541.7813,25.9375 541.9219,25.8594 Q542.0781,25.7813 542.2813,25.7813 Q542.6094,25.7813 542.8594,26.0469 Q543.125,26.2969 543.125,26.6406 Q543.125,26.9844 542.7813,27.3906 Q542.2813,27.9688 541.4844,28.2969 Q540.4063,28.75 539.1094,28.75 Q537.5938,28.75 536.3906,28.125 Q535.4063,27.625 534.7188,26.5625 Q534.0313,25.4844 534.0313,24.2031 L534.0313,23.0469 Q534.0313,21.7188 534.6406,20.5781 Q535.2656,19.4219 536.3594,18.8125 Q537.4531,18.1875 538.6875,18.1875 Q539.4219,18.1875 540.0625,18.3594 Q540.7188,18.5156 541.2656,18.875 Z " fill="#000000"/><text fill="#000000" font-family="sans-serif" font-size="12" lengthAdjust="spacingAndGlyphs" textLength="122" x="552.5" y="27.9102">VariableSmmRuntime</text><line style="stroke:#A80036;stroke-width:1.5;" x1="524.5" x2="676.5" y1="39" y2="39"/><line style="stroke:#A80036;stroke-width:1.5;" x1="524.5" x2="676.5" y1="47" y2="47"/><!--MD5=[5a0d628ad2276b46f4a60a30e790a22d]
class VariableRuntimeDxe--><rect fill="#FEFECE" filter="url(#f13rrqt8l9nxez)" height="48" id="VariableRuntimeDxe" style="stroke:#A80036;stroke-width:1.5;" width="145" x="732" y="7"/><ellipse cx="747" cy="23" fill="#ADD1B2" rx="11" ry="11" style="stroke:#A80036;stroke-width:1.0;"/><path d="M749.7656,18.875 Q749.9219,18.6563 750.1094,18.5469 Q750.2969,18.4375 750.5156,18.4375 Q750.8906,18.4375 751.125,18.7031 Q751.3594,18.9531 751.3594,19.5625 L751.3594,21.0156 Q751.3594,21.625 751.125,21.8906 Q750.8906,22.1563 750.5156,22.1563 Q750.1719,22.1563 749.9688,21.9531 Q749.7656,21.7656 749.6563,21.25 Q749.6094,20.8906 749.4219,20.7031 Q749.0938,20.3281 748.4844,20.1094 Q747.875,19.8906 747.25,19.8906 Q746.4844,19.8906 745.8438,20.2188 Q745.2188,20.5469 744.7188,21.2969 Q744.2344,22.0469 744.2344,23.0781 L744.2344,24.1719 Q744.2344,25.4063 745.125,26.2344 Q746.0156,27.0469 747.6094,27.0469 Q748.5469,27.0469 749.2031,26.7969 Q749.5938,26.6406 750.0156,26.2031 Q750.2813,25.9375 750.4219,25.8594 Q750.5781,25.7813 750.7813,25.7813 Q751.1094,25.7813 751.3594,26.0469 Q751.625,26.2969 751.625,26.6406 Q751.625,26.9844 751.2813,27.3906 Q750.7813,27.9688 749.9844,28.2969 Q748.9063,28.75 747.6094,28.75 Q746.0938,28.75 744.8906,28.125 Q743.9063,27.625 743.2188,26.5625 Q742.5313,25.4844 742.5313,24.2031 L742.5313,23.0469 Q742.5313,21.7188 743.1406,20.5781 Q743.7656,19.4219 744.8594,18.8125 Q745.9531,18.1875 747.1875,18.1875 Q747.9219,18.1875 748.5625,18.3594 Q749.2188,18.5156 749.7656,18.875 Z " fill="#000000"/><text fill="#000000" font-family="sans-serif" font-size="12" lengthAdjust="spacingAndGlyphs" textLength="113" x="761" y="27.9102">VariableRuntimeDxe</text><line style="stroke:#A80036;stroke-width:1.5;" x1="733" x2="876" y1="39" y2="39"/><line style="stroke:#A80036;stroke-width:1.5;" x1="733" x2="876" y1="47" y2="47"/><!--MD5=[f7ad10d6ad23dbaa194f179b13cc970e]
reverse link ProtectedVariableLib to PeiProtectedVariableLib--><path codeLine="1" d="M323.34,60.97 C285.5,74.74 242.07,93.03 205.5,115 C192.3,122.93 179.11,132.47 166.71,142.36 " fill="none" id="ProtectedVariableLib-backto-PeiProtectedVariableLib" style="stroke:#A80036;stroke-width:1.0;"/><polygon fill="none" points="321.08,54.35,342.27,54.29,325.74,67.55,321.08,54.35" style="stroke:#A80036;stroke-width:1.0;"/><!--MD5=[37faff4132c8cd6535e56800155cc563]
reverse link ProtectedVariableLib to SmmProtectedVariableLib--><path codeLine="9" d="M391.7,72.83 C384.32,85.49 375.87,100 367.3,114.69 " fill="none" id="ProtectedVariableLib-backto-SmmProtectedVariableLib" style="stroke:#A80036;stroke-width:1.0;"/><polygon fill="none" points="385.84,68.99,401.96,55.24,397.93,76.04,385.84,68.99" style="stroke:#A80036;stroke-width:1.0;"/><!--MD5=[206f7cf4a8bf26f0952047fc87923d71]
reverse link ProtectedVariableLib to SmmRuntimeProtectedVariableLib--><path codeLine="21" d="M445.75,71.22 C468.52,100.73 499.52,140.91 521.88,169.89 " fill="none" id="ProtectedVariableLib-backto-SmmRuntimeProtectedVariableLib" style="stroke:#A80036;stroke-width:1.0;"/><polygon fill="none" points="440.1,75.35,433.43,55.24,451.19,66.8,440.1,75.35" style="stroke:#A80036;stroke-width:1.0;"/><!--MD5=[47bbdad8a8916a08f77bd3ddaf48b6c6]
reverse link ProtectedVariableLib to DxeRuntimeProtectedVariableLib--><path codeLine="25" d="M508.17,57.63 C571.46,75.8 649.13,99.59 679.5,115 C685.39,117.99 691.29,121.25 697.16,124.69 " fill="none" id="ProtectedVariableLib-backto-DxeRuntimeProtectedVariableLib" style="stroke:#A80036;stroke-width:1.0;"/><polygon fill="none" points="505.95,64.28,488.63,52.07,509.79,50.81,505.95,64.28" style="stroke:#A80036;stroke-width:1.0;"/><!--MD5=[c34d98b7c83f7c30ecef94278112ecc3]
link VariablePei to PeiProtectedVariableLib--><path codeLine="37" d="M97.5,55.24 C97.5,76.16 97.5,107.99 97.5,137.12 " fill="none" id="VariablePei-to-PeiProtectedVariableLib" style="stroke:#A80036;stroke-width:1.0;stroke-dasharray:7.0,7.0;"/><polygon fill="#A80036" points="97.5,142.14,101.5,133.14,97.5,137.14,93.5,133.14,97.5,142.14" style="stroke:#A80036;stroke-width:1.0;"/><!--MD5=[3549229c0e2e90914bf4a986711ca864]
link VariableSmm to SmmProtectedVariableLib--><path codeLine="38" d="M261.47,55.24 C266.43,69.7 273.17,89.38 280.16,109.77 " fill="none" id="VariableSmm-to-SmmProtectedVariableLib" style="stroke:#A80036;stroke-width:1.0;stroke-dasharray:7.0,7.0;"/><polygon fill="#A80036" points="281.85,114.69,282.7012,104.878,280.2218,109.9625,275.1373,107.4831,281.85,114.69" style="stroke:#A80036;stroke-width:1.0;"/><!--MD5=[efc324cf811ab9a312c911151954752e]
link VariableSmmRuntime to SmmRuntimeProtectedVariableLib--><path codeLine="39" d="M593.86,55.24 C585.88,83.15 572.35,130.51 562.52,164.92 " fill="none" id="VariableSmmRuntime-to-SmmRuntimeProtectedVariableLib" style="stroke:#A80036;stroke-width:1.0;stroke-dasharray:7.0,7.0;"/><polygon fill="#A80036" points="561.1,169.89,567.4127,162.3302,562.4698,165.0813,559.7187,160.1385,561.1,169.89" style="stroke:#A80036;stroke-width:1.0;"/><!--MD5=[7a53e7c3eb4d950ee4f72724054f9c58]
link VariableRuntimeDxe to DxeRuntimeProtectedVariableLib--><path codeLine="40" d="M804.5,55.24 C804.5,69.64 804.5,89.21 804.5,109.51 " fill="none" id="VariableRuntimeDxe-to-DxeRuntimeProtectedVariableLib" style="stroke:#A80036;stroke-width:1.0;stroke-dasharray:7.0,7.0;"/><polygon fill="#A80036" points="804.5,114.69,808.5,105.69,804.5,109.69,800.5,105.69,804.5,114.69" style="stroke:#A80036;stroke-width:1.0;"/><!--MD5=[d7ceee72815501c1773053ba59d4c41e]
@startuml ProtectedVariableLib instances
    ProtectedVariableLib <|- - PeiProtectedVariableLib
    PeiProtectedVariableLib : ProtectedVariableLibInitialize()
    PeiProtectedVariableLib : ProtectedVariableLibGetByName()
    PeiProtectedVariableLib : ProtectedVariableLibGetByBuffer()
    PeiProtectedVariableLib : ProtectedVariableLibGetByInfo()
    PeiProtectedVariableLib : ProtectedVariableLibFindNext()
    PeiProtectedVariableLib : ProtectedVariableLibFindNextEx()

    ProtectedVariableLib <|- - SmmProtectedVariableLib
    SmmProtectedVariableLib : ProtectedVariableLibInitialize()
    SmmProtectedVariableLib : ProtectedVariableLibFindNext()
    SmmProtectedVariableLib : ProtectedVariableLibFindNextEx()
    SmmProtectedVariableLib : ProtectedVariableLibGetByName()
    SmmProtectedVariableLib : ProtectedVariableLibGetByBuffer()
    SmmProtectedVariableLib : ProtectedVariableLibGetByInfo()
    SmmProtectedVariableLib : ProtectedVariableLibWriteInit()
    SmmProtectedVariableLib : ProtectedVariableLibWriteFinal()
    SmmProtectedVariableLib : ProtectedVariableLibUpdate()
    SmmProtectedVariableLib : ProtectedVariableLibReclaim()

    ProtectedVariableLib <|- - SmmRuntimeProtectedVariableLib
    SmmRuntimeProtectedVariableLib : ProtectedVariableLibInitialize()
    SmmRuntimeProtectedVariableLib : ProtectedVariableLibGetByName()

    ProtectedVariableLib <|- - DxeRuntimeProtectedVariableLib
    DxeRuntimeProtectedVariableLib : ProtectedVariableLibInitialize()
    DxeRuntimeProtectedVariableLib : ProtectedVariableLibFindNext()
    DxeRuntimeProtectedVariableLib : ProtectedVariableLibFindNextEx()
    DxeRuntimeProtectedVariableLib : ProtectedVariableLibGetByName()
    DxeRuntimeProtectedVariableLib : ProtectedVariableLibGetByBuffer()
    DxeRuntimeProtectedVariableLib : ProtectedVariableLibGetByInfo()
    DxeRuntimeProtectedVariableLib : ProtectedVariableLibWriteInit()
    DxeRuntimeProtectedVariableLib : ProtectedVariableLibUpdate()
    DxeRuntimeProtectedVariableLib : ProtectedVariableLibWriteFinal()
    DxeRuntimeProtectedVariableLib : ProtectedVariableLibReclaim()

    VariablePei ..> PeiProtectedVariableLib
    VariableSmm ..> SmmProtectedVariableLib
    VariableSmmRuntime ..> SmmRuntimeProtectedVariableLib
    VariableRuntimeDxe ..> DxeRuntimeProtectedVariableLib
@enduml

PlantUML version 1.2020.26(Tue Dec 22 01:45:07 CST 2020)
(GPL source distribution)
Java Runtime: OpenJDK Runtime Environment
JVM: OpenJDK 64-Bit Server VM
Default Encoding: Cp1252
Language: en
Country: US
--></g></svg>